<svg width="36" height="36" viewBox="0 0 36 36" fill="none" xmlns="http://www.w3.org/2000/svg">
<rect x="0.5" y="0.5" width="35" height="35" rx="17.5" stroke="#6726DB"/>
<path d="M13.5017 15.0001C13.5014 15.0001 13.5019 15.0001 13.5017 15.0001H9.50108C9.22508 14.9999 9.00126 15.2236 9.00108 15.4995C9.00108 15.4993 9.00108 15.4998 9.00108 15.4995V27.5001C9.0009 27.7761 9.22453 27.9999 9.50047 28.0001C9.50029 28.0001 9.50071 28.0001 9.50047 28.0001H13.5011C13.7771 28.0003 14.0009 27.7767 14.0011 27.5007C14.0011 27.5005 14.0011 27.5009 14.0011 27.5007V15.5001C14.0013 15.2241 13.7776 15.0003 13.5017 15.0001ZM13.0011 27.0001H10.0011V16.0001H13.0011V27.0001ZM24.0011 15.0001C22.9162 15.0002 21.8617 15.3582 21.0011 16.0187V15.5001C21.0013 15.2241 20.7776 15.0003 20.5017 15.0001C20.5014 15.0001 20.5019 15.0001 20.5017 15.0001H16.5011C16.2251 14.9999 16.0013 15.2236 16.0011 15.4995C16.0011 15.4993 16.0011 15.4998 16.0011 15.4995V27.5001C16.0009 27.7761 16.2245 27.9999 16.5005 28.0001C16.5003 28.0001 16.5007 28.0001 16.5005 28.0001H20.5011C20.7771 28.0003 21.0009 27.7767 21.0011 27.5007C21.0011 27.5005 21.0011 27.5009 21.0011 27.5007V22.0001C21.0011 21.1717 21.6727 20.5001 22.5011 20.5001C23.3295 20.5001 24.0011 21.1717 24.0011 22.0001V27.5001C24.0009 27.7761 24.2245 27.9999 24.5005 28.0001C24.5003 28.0001 24.5007 28.0001 24.5005 28.0001H28.5011C28.7771 28.0003 29.0009 27.7767 29.0011 27.5007C29.0011 27.5005 29.0011 27.5009 29.0011 27.5007V20.0001C28.9978 17.2401 26.7612 15.0034 24.0011 15.0001ZM28.0011 27.0001H25.0011V22.0001C25.0011 20.6194 23.8818 19.5001 22.5011 19.5001C21.1203 19.5001 20.0011 20.6194 20.0011 22.0001V27.0001H17.0011V16.0001H20.0011V17.2033C20.0011 17.4157 20.1355 17.6049 20.3361 17.6749C20.5362 17.7471 20.7601 17.6829 20.8918 17.5158C22.2543 15.7889 24.7587 15.4937 26.4855 16.8563C27.4474 17.6154 28.0064 18.7748 28.0011 20.0001V27.0001ZM11.8691 8.00196C11.7514 7.99372 11.6334 7.99311 11.5157 8.00013C10.0065 7.89704 8.69938 9.03699 8.5963 10.5463C8.59215 10.607 8.59007 10.6678 8.58995 10.7286C8.57695 12.2251 9.77952 13.4487 11.276 13.4617C11.3371 13.4623 11.3981 13.4607 11.4591 13.4571H11.4874C12.9938 13.5625 14.3004 12.4268 14.4058 10.9204C14.5112 9.41395 13.3755 8.10737 11.8691 8.00196ZM11.8345 12.46C11.719 12.4706 11.6027 12.4697 11.4874 12.4571H11.4591C10.503 12.5306 9.66838 11.8151 9.59489 10.859C9.52141 9.90296 10.2369 9.0683 11.193 8.99482C11.3005 8.98658 11.4086 8.98835 11.5157 9.00013C12.4711 8.91212 13.317 9.61524 13.4051 10.5706C13.4931 11.5261 12.79 12.372 11.8345 12.46Z" fill="#6726DB"/>
</svg>
